# File created by Blade
# Date/Time:  Thu Sep 25 17:33:50 2014
# Frame Rate: 120.000 fps
#------------------------------------------------------
:FULLY-SPECIFIED
:DEGREES
1884
root -6.461236 34.573266 -1.242146 25.544902 -12.928629 34.848984
Spine -10.955480 -4.905748 -25.018848
Head -25.926556 12.326661 -9.574027
LeftShoulder -0.140020 11.248675 16.102904
LeftArm 66.576944 31.679012 -43.544429
LeftForeArm 33.857446 0.000000 107.427302
LeftHand -26.774745 -0.000000 24.603563
LeftHandThumb1 -26.253704 0.000000 33.147579
RightShoulder -13.356253 10.939564 -26.146348
RightArm 6.568196 -33.776754 80.108625
RightForeArm -22.987973 -0.000000 123.951985
RightHand -0.004221 -0.000000 -25.294818
RightHandThumb1 -24.326973 -0.000000 -32.862282
LeftUpLeg -26.489052 -0.349004 31.421780
LeftLeg 125.711656 -0.000000 -0.000000
LeftFoot 18.476244 7.575751 -6.140863
LeftToeBase 1.350384 -0.000000 -0.000000
RightUpLeg -36.852320 -3.151680 -32.600555
RightLeg 18.409487 -0.000000 -0.000000
RightFoot -7.979710 -8.288645 -16.376125
RightToeBase -2.883811 -0.000000 0.000000
1885
root -6.471469 34.554346 -1.219402 25.580842 -13.012070 34.629680
Spine -11.015113 -4.847304 -24.911295
Head -26.010669 12.185362 -9.424439
LeftShoulder -0.130784 11.342371 16.205206
LeftArm 66.673535 31.703085 -43.498560
LeftForeArm 33.909128 0.000000 107.346775
LeftHand -26.767327 -0.000000 24.450797
LeftHandThumb1 -26.253704 0.000000 33.147579
RightShoulder -13.423954 10.876762 -26.088094
RightArm 6.494690 -33.822050 80.018801
RightForeArm -22.935233 0.000000 123.965100
RightHand -0.027390 0.000000 -25.439336
RightHandThumb1 -24.326973 -0.000000 -32.862282
LeftUpLeg -26.228838 -0.446811 31.037891
LeftLeg 125.799410 -0.000000 -0.000000
LeftFoot 18.547038 7.704244 -6.246124
LeftToeBase 1.328972 -0.000000 -0.000000
RightUpLeg -36.954581 -2.818978 -32.491211
RightLeg 18.538312 -0.000000 -0.000000
RightFoot -8.027930 -8.535502 -16.584365
RightToeBase -2.819868 -0.000000 0.000000
1886
root -6.484417 34.532262 -1.191145 25.627497 -13.021419 34.379813
Spine -11.101331 -4.910432 -24.702375
Head -26.027142 12.106273 -9.334303
LeftShoulder -0.210810 11.572584 16.240877
LeftArm 66.878374 31.679125 -43.382722
LeftForeArm 33.919480 -0.000000 107.223323
LeftHand -26.809956 -0.000000 24.503919
LeftHandThumb1 -26.253704 0.000000 33.147579
RightShoulder -13.421414 10.795764 -26.038947
RightArm 6.468854 -33.895786 79.912733
RightForeArm -23.019098 0.000000 123.954284
RightHand -0.196079 -0.000000 -25.465438
RightHandThumb1 -24.326973 -0.000000 -32.862282
LeftUpLeg -25.985317 -0.589091 30.711904
LeftLeg 125.889942 -0.000000 -0.000000
LeftFoot 18.534023 7.742170 -6.179868
LeftToeBase 1.461214 -0.000000 -0.000000
RightUpLeg -37.016751 -2.514118 -32.329140
RightLeg 18.678324 -0.000000 -0.000000
RightFoot -8.097210 -8.797260 -16.770370
RightToeBase -2.824606 -0.000000 0.000000
1887
root -6.500923 34.507614 -1.162090 25.673365 -13.091087 34.073612
Spine -11.221478 -4.888699 -24.480017
Head -25.994903 12.108127 -9.250862
LeftShoulder -0.220873 11.624584 16.344096
LeftArm 66.894060 31.805625 -43.425616
LeftForeArm 33.835190 0.000000 107.132725
LeftHand -26.880339 -0.000000 24.707625
LeftHandThumb1 -26.253704 0.000000 33.147579
RightShoulder -13.386190 10.751746 -26.012122
RightArm 6.347313 -33.926475 79.875865
RightForeArm -23.142491 -0.000000 123.982761
RightHand -0.362601 -0.000000 -25.346499
RightHandThumb1 -24.326973 -0.000000 -32.862282
LeftUpLeg -25.682472 -0.657991 30.416410
LeftLeg 125.948472 -0.000000 -0.000000
LeftFoot 18.590962 7.923667 -6.398127
LeftToeBase 1.319663 -0.000000 -0.000000
RightUpLeg -37.096618 -2.003495 -32.220898
RightLeg 18.812652 -0.000000 -0.000000
RightFoot -8.167718 -9.116739 -16.846456
RightToeBase -2.703323 -0.000000 0.000000
1888
root -6.514532 34.487748 -1.134577 25.674896 -13.131160 33.847655
Spine -11.260377 -4.882632 -24.356254
Head -25.970683 12.096166 -9.135362
LeftShoulder -0.243421 11.684454 16.432724
LeftArm 67.000967 31.880222 -43.403375
LeftForeArm 33.704644 -0.000000 107.024860
LeftHand -26.876977 0.000000 24.903209
LeftHandThumb1 -26.253704 0.000000 33.147579
RightShoulder -13.388027 10.776964 -25.959805
RightArm 6.191835 -34.019684 79.800850
RightForeArm -23.038553 0.000000 123.998854
RightHand -0.290849 -0.000000 -24.993734
RightHandThumb1 -24.326973 -0.000000 -32.862282
LeftUpLeg -25.391751 -0.844514 30.038088
LeftLeg 126.041993 -0.000000 -0.000000
LeftFoot 18.426200 7.930226 -6.458526
LeftToeBase 1.483035 -0.000000 -0.000000
RightUpLeg -37.157040 -1.727125 -32.061731
RightLeg 18.962450 -0.000000 -0.000000
RightFoot -8.227000 -9.283599 -16.782883
RightToeBase -2.838798 -0.000000 0.000000
1889
root -6.526875 34.464218 -1.097590 25.684553 -13.151259 33.626531
Spine -11.354607 -4.865153 -24.238960
Head -25.879600 12.030202 -8.983520
LeftShoulder -0.224065 11.697913 16.564285
LeftArm 67.027973 32.051436 -43.457346
LeftForeArm 33.655575 -0.000000 106.952242
LeftHand -26.859459 -0.000000 24.983071
LeftHandThumb1 -26.253704 0.000000 33.147579
RightShoulder -13.439217 10.747139 -25.949818
RightArm 6.016877 -34.093195 79.804347
RightForeArm -22.919485 -0.000000 123.977966
RightHand -0.106090 -0.000000 -25.017136
RightHandThumb1 -24.326973 -0.000000 -32.862282
LeftUpLeg -25.096642 -0.986475 29.648115
LeftLeg 126.065680 -0.000000 -0.000000
LeftFoot 18.411826 8.100008 -6.621878
LeftToeBase 1.584378 -0.000000 -0.000000
RightUpLeg -37.175028 -1.379187 -31.964347
RightLeg 19.101070 -0.000000 -0.000000
RightFoot -8.349696 -9.528309 -16.764956
RightToeBase -2.805955 -0.000000 0.000000
1890
root -6.541052 34.440811 -1.063872 25.704742 -13.181087 33.359879
Spine -11.458692 -4.847701 -24.065669
Head -25.793325 11.977603 -8.893415
LeftShoulder -0.256921 11.682512 16.642863
LeftArm 67.060808 32.226390 -43.507719
LeftForeArm 33.672533 -0.000000 106.870050
LeftHand -26.815347 0.000000 24.913515
LeftHandThumb1 -26.253704 0.000000 33.147579
RightShoulder -13.459368 10.708454 -25.910100
RightArm 5.937321 -34.158850 79.717292
RightForeArm -22.815369 -0.000000 123.972543
RightHand -0.133221 0.000000 -25.046463
RightHandThumb1 -24.326973 -0.000000 -32.862282
LeftUpLeg -24.800635 -1.099052 29.300253
LeftLeg 126.100462 -0.000000 -0.000000
LeftFoot 18.366796 8.231506 -6.676272
LeftToeBase 1.423737 -0.000000 -0.000000
RightUpLeg -37.217456 -1.037400 -31.816394
RightLeg 19.238320 -0.000000 -0.000000
RightFoot -8.442698 -9.685111 -16.723994
RightToeBase -2.904877 -0.000000 0.000000
1891
root -6.560273 34.417612 -1.033704 25.758335 -13.172504 33.077541
Spine -11.588382 -4.839801 -23.874042
Head -25.681654 11.878847 -8.784794
LeftShoulder -0.285895 11.666453 16.704454
LeftArm 67.147987 32.366747 -43.490758
LeftForeArm 33.716428 -0.000000 106.793072
LeftHand -26.783335 -0.000000 24.794127
LeftHandThumb1 -26.253704 0.000000 33.147579
RightShoulder -13.480756 10.649451 -25.864851
RightArm 5.863466 -34.186946 79.627251
RightForeArm -22.748207 -0.000000 123.973215
RightHand -0.150919 -0.000000 -25.076150
RightHandThumb1 -24.326973 -0.000000 -32.862282
LeftUpLeg -24.553152 -1.201539 28.996804
LeftLeg 126.101188 -0.000000 -0.000000
LeftFoot 18.383167 8.333560 -6.505972
LeftToeBase 1.486662 -0.000000 -0.000000
RightUpLeg -37.298753 -0.794296 -31.606285
RightLeg 19.426149 -0.000000 -0.000000
RightFoot -8.589486 -9.745792 -16.610278
RightToeBase -2.855641 -0.000000 0.000000
1892
root -6.575412 34.396679 -0.999999 25.824435 -13.165950 32.816546
Spine -11.742870 -4.830360 -23.703304
Head -25.586771 11.735083 -8.666853
LeftShoulder -0.342731 11.738125 16.754088
LeftArm 67.327359 32.485346 -43.411530
LeftForeArm 33.806654 0.000000 106.731988
LeftHand -26.673760 -0.000000 24.614563
LeftHandThumb1 -26.253704 0.000000 33.147579
RightShoulder -13.536903 10.575594 -25.824484
RightArm 5.794349 -34.203110 79.541490
RightForeArm -22.691201 -0.000000 123.974043
RightHand -0.077138 -0.000000 -25.041004
RightHandThumb1 -24.326973 -0.000000 -32.862282
LeftUpLeg -24.337703 -1.331715 28.624947
LeftLeg 126.117802 -0.000000 -0.000000
LeftFoot 18.375868 8.453116 -6.584127
LeftToeBase 1.676293 -0.000000 -0.000000
RightUpLeg -37.364324 -0.503452 -31.449193
RightLeg 19.571543 -0.000000 -0.000000
RightFoot -8.681435 -9.913827 -16.516397
RightToeBase -2.897471 -0.000000 0.000000
1893
root -6.594064 34.373647 -0.966434 25.895039 -13.138230 32.516315
Spine -11.900243 -4.796368 -23.497673
Head -25.465132 11.609325 -8.560402
LeftShoulder -0.330804 11.711134 16.833664
LeftArm 67.416051 32.680778 -43.461566
LeftForeArm 33.948846 -0.000000 106.673535
LeftHand -26.656682 -0.000000 24.556436
LeftHandThumb1 -26.253704 0.000000 33.147579
RightShoulder -13.611549 10.506321 -25.771455
RightArm 5.731791 -34.211335 79.418440
RightForeArm -22.717248 -0.000000 123.985573
RightHand -0.153571 0.000000 -25.414846
RightHandThumb1 -24.326973 -0.000000 -32.862282
LeftUpLeg -24.085602 -1.463325 28.325255
LeftLeg 126.108157 -0.000000 -0.000000
LeftFoot 18.308490 8.512735 -6.535145
LeftToeBase 1.423493 -0.000000 -0.000000
RightUpLeg -37.443832 -0.320216 -31.197282
RightLeg 19.757612 -0.000000 -0.000000
RightFoot -8.853316 -9.891442 -16.378571
RightToeBase -2.946384 -0.000000 0.000000
